Coordinates
version=1
nRows=19
nColumns=33
inDegrees=yes

Units are S.I. units (second, meters, Newtons, ...)
Angles are in degrees.

endheader
time	ground_thorax_rot_x	ground_thorax_rot_y	ground_thorax_rot_z	ground_thorax_tx	ground_thorax_ty	ground_thorax_tz	clav_prot_r	clav_elev_r	scapula_abduction_r	scapula_elevation_r	scapula_upward_rot_r	scapula_winging_r	shoulder_elv_r	plane_of_elev_r	axial_rot_r	elbow_flexion_r	pro_sup_r	wrist_flex_r	wrist_dev_r	clav_prot_l	clav_elev_l	scapula_abduction_l	scapula_elevation_l	scapula_upward_rot_l	scapula_winging_l	shoulder_elv_l	plane_of_elev_l	axial_rot_l	elbow_flexion_l	pro_sup_l	wrist_flex_l	wrist_dev_l	
7.6700	18.630626	34.826592	57.052000	0.667648	800.412881	-39.987674	13.204534	35.540405	27.333118	45.000000	-45.000000	276.288005	-1369.251907	21.544398	-166.040465	2519.425102	176.244943	13.305298	14.454895	-11.864234	-45.000000	-36.797162	45.000000	-45.000000	3702.258330	-2444.073303	25.495272	30.522267	1068.161575	42.481736	12.873408	-14.046752	
7.6800	18.502116	34.856427	57.214704	1.577559	799.558235	-39.771710	13.185212	35.561429	27.264800	45.000000	-45.000000	276.374146	-1369.293670	21.513542	-165.990098	2519.430833	176.420842	13.266141	14.436707	-11.934914	-45.000000	-36.720523	45.000000	-45.000000	3702.251717	-2444.154113	25.451993	30.322018	1068.200220	42.572246	12.814315	-13.994047	
7.6900	18.370585	34.888918	57.382533	2.479729	798.705081	-39.557268	13.171489	35.567285	27.193983	45.000000	-45.000000	276.451795	-1369.340068	21.484904	-165.942287	2519.435378	176.585853	13.221914	14.423722	-12.007307	-45.000000	-36.649077	45.000000	-45.000000	3702.249475	-2444.237307	25.405524	30.112741	1068.241442	42.670949	12.763798	-13.949839	
7.7000	18.244158	34.920501	57.547263	3.375855	797.853124	-39.344949	13.153263	35.593436	27.117012	45.000000	-45.000000	276.537658	-1369.375069	21.451434	-165.890302	2519.431835	176.740139	13.177699	14.402117	-12.073503	-45.000000	-36.565739	45.000000	-45.000000	3702.240078	-2444.318902	25.359332	29.881885	1068.285620	42.779556	12.705494	-13.897845	
7.7100	18.108314	34.953270	57.727072	4.267511	797.001763	-39.135126	13.142729	35.590879	27.035102	45.000000	-45.000000	276.617801	-1369.414282	21.430359	-165.838695	2519.443334	176.883552	13.121052	14.384009	-12.145460	-45.000000	-36.489532	45.000000	-45.000000	3702.235616	-2444.398154	25.307314	29.633767	1068.332202	42.893988	12.657092	-13.855583	
7.7200	17.979040	34.980000	57.899657	5.155819	796.150091	-38.928011	13.124854	35.607293	26.959430	45.000000	-45.000000	276.707965	-1369.451927	21.401036	-165.785819	2519.453680	177.018036	13.062956	14.363202	-12.211191	-45.000000	-36.410179	45.000000	-45.000000	3702.230694	-2444.480105	25.256177	29.361596	1068.386275	43.012526	12.607451	-13.813920	
7.7300	17.839799	35.008070	58.083395	6.041183	795.297799	-38.723985	13.114361	35.595698	26.878631	45.000000	-45.000000	276.791416	-1369.496124	21.382043	-165.735948	2519.473044	177.145501	12.995986	14.346378	-12.285088	-45.000000	-36.338982	45.000000	-45.000000	3702.228666	-2444.560140	25.197387	29.069987	1068.446513	43.131118	12.567144	-13.782270	
7.7400	17.711434	35.028784	58.253802	6.923123	794.445825	-38.523859	13.093989	35.612657	26.805284	45.000000	-45.000000	276.889048	-1369.534173	21.348660	-165.684545	2519.484986	177.268442	12.932928	14.325549	-12.347109	-45.000000	-36.261892	45.000000	-45.000000	3702.227406	-2444.647073	25.142661	28.750191	1068.515727	43.248157	12.525364	-13.750663	
7.7500	17.574222	35.051058	58.435473	7.800150	793.597852	-38.329284	13.080389	35.610952	26.727607	45.000000	-45.000000	276.979837	-1369.575582	21.323160	-165.635238	2519.504124	177.388078	12.866122	14.306767	-12.415357	-45.000000	-36.188555	45.000000	-45.000000	3702.226637	-2444.730028	25.083980	28.416470	1068.586844	43.361088	12.488788	-13.723152	
7.7600	17.449314	35.065448	58.599294	8.669813	792.759938	-38.142508	13.059095	35.635970	26.655512	45.000000	-45.000000	277.081085	-1369.613264	21.285841	-165.583019	2519.513326	177.506196	12.806728	14.283574	-12.472020	-45.000000	-36.111674	45.000000	-45.000000	3702.224456	-2444.818558	25.032865	28.072134	1068.663147	43.469081	12.448757	-13.693880	
7.7700	17.316293	35.085010	58.775946	9.529111	791.940423	-37.966107	13.050841	35.635686	26.568327	45.000000	-45.000000	277.167030	-1369.652012	21.264050	-165.536644	2519.525182	177.621478	12.746328	14.259657	-12.537757	-45.000000	-36.036136	45.000000	-45.000000	3702.219596	-2444.896560	24.975087	27.736210	1068.732409	43.572576	12.407419	-13.661740	
7.7800	17.203627	35.098079	58.933454	10.374781	791.147924	-37.802175	13.037121	35.654784	26.478877	45.000000	-45.000000	277.261057	-1369.677002	21.238914	-165.481733	2519.527308	177.734694	12.692987	14.227287	-12.592030	-45.000000	-35.955943	45.000000	-45.000000	3702.213848	-2444.978288	24.922542	27.411680	1068.793951	43.672636	12.361103	-13.624649	
7.7900	17.086098	35.118565	59.104674	11.204161	790.389723	-37.651741	13.036831	35.642706	26.385958	45.000000	-45.000000	277.329341	-1369.710609	21.230760	-165.431106	2519.541751	177.843032	12.636802	14.201746	-12.658282	-45.000000	-35.885021	45.000000	-45.000000	3702.210290	-2445.048720	24.865850	27.121704	1068.839528	43.770152	12.318368	-13.589937	
7.8000	16.989470	35.130558	59.253645	12.015436	789.669373	-37.514166	13.030682	35.644978	26.301838	45.000000	-45.000000	277.401494	-1369.743094	21.218803	-165.372758	2519.551459	177.947700	12.586145	14.174340	-12.716674	-45.000000	-35.815843	45.000000	-45.000000	3702.208126	-2445.119255	24.817467	26.858677	1068.875067	43.867388	12.275718	-13.556282	
7.8100	16.887695	35.147160	59.417583	12.807833	788.987227	-37.387557	13.032567	35.630140	26.217563	45.000000	-45.000000	277.463440	-1369.779298	21.209615	-165.322584	2519.570304	178.044435	12.533458	14.148113	-12.781503	-45.000000	-35.748529	45.000000	-45.000000	3702.204363	-2445.174742	24.761213	26.615118	1068.898361	43.965964	12.228729	-13.518892	
7.8200	16.810415	35.150283	59.556561	13.581069	788.341382	-37.269509	13.018925	35.639180	26.156193	45.000000	-45.000000	277.537650	-1369.814045	21.185579	-165.257417	2519.587662	178.135655	12.485572	14.123228	-12.832927	-45.000000	-35.684661	45.000000	-45.000000	3702.208040	-2445.239553	24.715353	26.379660	1068.920938	44.063970	12.188942	-13.491504	
7.8300	16.728857	35.154596	59.702805	14.335208	787.729581	-37.158040	13.010115	35.637678	26.103438	45.000000	-45.000000	277.601924	-1369.858581	21.160351	-165.194829	2519.613464	178.217836	12.436573	14.106768	-12.889413	-45.000000	-35.626412	45.000000	-45.000000	3702.212147	-2445.295259	24.668049	26.153063	1068.941903	44.161627	12.152045	-13.469943	
7.8400	16.661146	35.150481	59.833355	15.069996	787.150065	-37.052146	12.993858	35.651071	26.055990	45.000000	-45.000000	277.676394	-1369.896055	21.129391	-165.121475	2519.634150	178.291516	12.391867	14.081206	-12.938441	-45.000000	-35.566585	45.000000	-45.000000	3702.211939	-2445.351902	24.622225	25.918786	1068.967490	44.258302	12.111065	-13.447255	
7.8500	16.590646	35.150048	59.970373	15.784382	786.602713	-36.952193	12.983452	35.656515	26.006427	45.000000	-45.000000	277.744263	-1369.929907	21.100305	-165.046876	2519.658905	178.354113	12.346542	14.061785	-12.990684	-45.000000	-35.509611	45.000000	-45.000000	3702.209827	-2445.402255	24.570911	25.680401	1068.993065	44.351776	12.070661	-13.427447	
